<?xml version="1.0" standalone="no"?>
<!DOCTYPE svg PUBLIC "-//W3C//DTD SVG 20010904//EN"
 "http://www.w3.org/TR/2001/REC-SVG-20010904/DTD/svg10.dtd">
<svg version="1.0" xmlns="http://www.w3.org/2000/svg"
 width="311.000000pt" height="311.000000pt" viewBox="0 0 311.000000 311.000000"
 preserveAspectRatio="xMidYMid meet">
<metadata>
Created by potrace 1.14, written by Peter Selinger 2001-2017
</metadata>
<g transform="translate(0.000000,311.000000) scale(0.100000,-0.100000)"
fill="#000000" stroke="none">
<path d="M0 1555 l0 -1555 1555 0 1555 0 0 1555 0 1555 -1555 0 -1555 0 0
-1555z m2059 1250 c134 -32 229 -104 279 -214 35 -74 42 -210 17 -297 -25 -87
-79 -153 -159 -193 l-39 -20 29 -11 c271 -107 426 -257 514 -498 65 -179 78
-434 31 -616 -23 -88 -83 -214 -136 -286 -49 -67 -171 -179 -238 -219 -134
-79 -318 -116 -526 -106 -127 7 -161 17 -161 49 0 20 5 21 157 21 137 0 168 3
233 23 462 143 682 762 433 1217 -56 103 -186 230 -288 282 -160 81 -273 105
-509 107 l-141 1 -3 -142 c-1 -79 -4 -143 -6 -143 -3 0 -42 22 -88 48 l-83 48
-3 302 -2 302 -33 16 c-41 22 -159 30 -214 15 -106 -29 -195 -130 -208 -236
-9 -65 9 -157 41 -211 50 -85 195 -193 434 -323 231 -126 419 -264 488 -357
66 -89 87 -166 86 -314 -1 -111 -4 -134 -29 -200 -49 -133 -145 -254 -266
-337 -48 -33 -69 -30 -69 9 0 10 -5 18 -12 18 -7 0 15 28 48 62 136 142 184
251 184 423 0 135 -52 246 -153 327 -69 55 -255 176 -342 224 -247 133 -423
272 -475 373 -85 168 -56 377 72 504 90 90 196 129 356 129 l93 1 -6 31 c-12
59 -16 66 -48 83 -18 9 -62 18 -100 21 l-68 5 3 31 3 31 165 8 c91 4 210 11
265 16 173 14 403 12 474 -4z m-921 -1217 c68 -34 135 -99 158 -153 42 -102
38 -212 -11 -269 l-25 -29 -16 39 c-9 21 -19 41 -23 44 -14 11 -30 58 -36 105
-4 28 -15 68 -24 90 -18 40 -91 115 -113 115 -6 0 -9 3 -5 6 3 3 -3 20 -13 36
-39 65 -3 70 108 16z m-377 19 c-12 -15 -6 -27 12 -23 7 2 9 1 4 -1 -4 -3 -4
-10 -1 -15 5 -7 2 -8 -6 -3 -7 4 -15 3 -19 -2 -3 -5 -26 -21 -51 -35 -110 -63
-203 -196 -236 -334 -22 -93 -15 -245 15 -334 61 -178 232 -343 425 -410 100
-34 191 -43 317 -31 155 15 153 15 161 26 4 6 8 2 8 -8 0 -11 4 -15 11 -11 8
5 10 -1 7 -19 -4 -18 -1 -24 9 -20 7 3 13 1 13 -5 0 -5 -24 -12 -52 -15 -29
-3 -93 -11 -143 -17 -282 -38 -579 58 -749 240 -114 124 -156 229 -163 410 -6
137 6 208 53 309 46 101 148 209 247 262 86 46 163 66 138 36z m293 -539 c7
-5 5 -8 -5 -8 -22 0 -29 9 -21 28 5 13 6 14 10 1 3 -7 10 -17 16 -21z"/>
<path d="M1820 2753 c-52 -4 -147 -22 -212 -40 l-58 -16 0 -288 0 -289 208 0
c238 0 283 8 350 66 53 45 77 91 92 174 43 240 -124 412 -380 393z"/>
</g>
</svg>
